<mxfile host="app.diagrams.net" modified="2024-06-08T18:01:58.304Z" agent="Mozilla/5.0 (Windows NT 10.0; Win64; x64) AppleWebKit/537.36 (KHTML, like Gecko) Chrome/125.0.0.0 Safari/537.36" etag="D55W1MTnaIfbXrJD_paX" version="24.5.2" type="device">
  <diagram name="Página-1" id="JaIZ6HeKFuRoxINo36s_">
    <mxGraphModel dx="1195" dy="622" grid="1" gridSize="10" guides="1" tooltips="1" connect="1" arrows="1" fold="1" page="1" pageScale="1" pageWidth="827" pageHeight="1169" math="0" shadow="0">
      <root>
        <mxCell id="0" />
        <mxCell id="1" parent="0" />
        <mxCell id="d31LF5LQ77CdiA_W0-7B-2" value="Transferência solicitada" style="rounded=1;whiteSpace=wrap;html=1;absoluteArcSize=1;arcSize=14;strokeWidth=1;fontSize=14;fillColor=#dae8fc;strokeColor=#6c8ebf;" vertex="1" parent="1">
          <mxGeometry x="20" y="70" width="170" height="50" as="geometry" />
        </mxCell>
        <mxCell id="d31LF5LQ77CdiA_W0-7B-4" value="" style="ellipse;html=1;shape=startState;fillColor=#000000;strokeColor=#ff0000;" vertex="1" parent="1">
          <mxGeometry x="90" y="4" width="30" height="30" as="geometry" />
        </mxCell>
        <mxCell id="d31LF5LQ77CdiA_W0-7B-5" value="" style="edgeStyle=orthogonalEdgeStyle;html=1;verticalAlign=bottom;endArrow=open;endSize=8;strokeColor=#ff0000;rounded=0;entryX=0.5;entryY=0;entryDx=0;entryDy=0;" edge="1" source="d31LF5LQ77CdiA_W0-7B-4" parent="1" target="d31LF5LQ77CdiA_W0-7B-2">
          <mxGeometry relative="1" as="geometry">
            <mxPoint x="105" y="100" as="targetPoint" />
          </mxGeometry>
        </mxCell>
        <mxCell id="d31LF5LQ77CdiA_W0-7B-6" value="Validar dados recebidos" style="rounded=1;whiteSpace=wrap;html=1;absoluteArcSize=1;arcSize=14;strokeWidth=1;fontSize=14;" vertex="1" parent="1">
          <mxGeometry x="20" y="167" width="170" height="50" as="geometry" />
        </mxCell>
        <mxCell id="d31LF5LQ77CdiA_W0-7B-7" value="" style="endArrow=open;endFill=1;endSize=8;html=1;rounded=0;exitX=0.5;exitY=1;exitDx=0;exitDy=0;entryX=0.5;entryY=0;entryDx=0;entryDy=0;" edge="1" parent="1" source="d31LF5LQ77CdiA_W0-7B-2" target="d31LF5LQ77CdiA_W0-7B-6">
          <mxGeometry width="160" relative="1" as="geometry">
            <mxPoint x="160" y="400" as="sourcePoint" />
            <mxPoint x="320" y="400" as="targetPoint" />
          </mxGeometry>
        </mxCell>
        <mxCell id="d31LF5LQ77CdiA_W0-7B-12" value="Retorno: mensagens de erro de validação" style="rounded=1;whiteSpace=wrap;html=1;absoluteArcSize=1;arcSize=14;strokeWidth=1;fontSize=14;fillColor=#f8cecc;strokeColor=#b85450;" vertex="1" parent="1">
          <mxGeometry x="238" y="287" width="170" height="50" as="geometry" />
        </mxCell>
        <mxCell id="d31LF5LQ77CdiA_W0-7B-14" value="Dados são válidos?" style="rhombus;whiteSpace=wrap;html=1;fillColor=#ffe6cc;strokeColor=#d79b00;fontSize=14;" vertex="1" parent="1">
          <mxGeometry x="54" y="267" width="100" height="90" as="geometry" />
        </mxCell>
        <mxCell id="d31LF5LQ77CdiA_W0-7B-15" value="Não" style="edgeStyle=orthogonalEdgeStyle;html=1;align=left;verticalAlign=bottom;endArrow=open;endSize=8;strokeColor=#d79b00;rounded=0;fontSize=13;entryX=0;entryY=0.5;entryDx=0;entryDy=0;fillColor=#ffe6cc;" edge="1" parent="1" target="d31LF5LQ77CdiA_W0-7B-12">
          <mxGeometry x="-1" relative="1" as="geometry">
            <mxPoint x="257" y="312" as="targetPoint" />
            <mxPoint x="151.99999999999977" y="312.0000000000001" as="sourcePoint" />
            <mxPoint as="offset" />
          </mxGeometry>
        </mxCell>
        <mxCell id="d31LF5LQ77CdiA_W0-7B-16" value="Sim" style="edgeStyle=orthogonalEdgeStyle;html=1;align=left;verticalAlign=top;endArrow=open;endSize=8;strokeColor=#d79b00;rounded=0;fontSize=13;entryX=0.5;entryY=0;entryDx=0;entryDy=0;fillColor=#ffe6cc;" edge="1" parent="1" target="d31LF5LQ77CdiA_W0-7B-43">
          <mxGeometry x="-1" relative="1" as="geometry">
            <mxPoint x="104" y="420" as="targetPoint" />
            <mxPoint x="104" y="355.9999999999999" as="sourcePoint" />
          </mxGeometry>
        </mxCell>
        <mxCell id="d31LF5LQ77CdiA_W0-7B-30" value="Os dados são considerados válidos se:&lt;br style=&quot;font-size: 13px;&quot;&gt;- O pagador informado existe no banco de dados&lt;br style=&quot;font-size: 13px;&quot;&gt;- O recebedor informado existe no banco de dados&lt;br style=&quot;font-size: 13px;&quot;&gt;- O valor a ser transferido é um número positivo" style="strokeWidth=1;html=1;shape=mxgraph.flowchart.annotation_2;align=left;labelPosition=right;pointerEvents=1;fontSize=13;" vertex="1" parent="1">
          <mxGeometry x="240" y="161" width="40" height="80" as="geometry" />
        </mxCell>
        <mxCell id="d31LF5LQ77CdiA_W0-7B-38" value="" style="ellipse;html=1;shape=endState;fillColor=#000000;strokeColor=#ff0000;" vertex="1" parent="1">
          <mxGeometry x="467" y="297" width="30" height="30" as="geometry" />
        </mxCell>
        <mxCell id="d31LF5LQ77CdiA_W0-7B-39" value="" style="endArrow=open;endFill=1;endSize=8;html=1;rounded=0;exitX=0;exitY=0.5;exitDx=0;exitDy=0;exitPerimeter=0;entryX=1;entryY=0;entryDx=0;entryDy=0;" edge="1" parent="1" source="d31LF5LQ77CdiA_W0-7B-30" target="d31LF5LQ77CdiA_W0-7B-14">
          <mxGeometry width="160" relative="1" as="geometry">
            <mxPoint x="360" y="480" as="sourcePoint" />
            <mxPoint x="520" y="480" as="targetPoint" />
          </mxGeometry>
        </mxCell>
        <mxCell id="d31LF5LQ77CdiA_W0-7B-41" value="" style="edgeStyle=orthogonalEdgeStyle;html=1;verticalAlign=bottom;endArrow=open;endSize=8;strokeColor=#ff0000;rounded=0;entryX=0;entryY=0.5;entryDx=0;entryDy=0;exitX=1;exitY=0.5;exitDx=0;exitDy=0;" edge="1" parent="1" source="d31LF5LQ77CdiA_W0-7B-12" target="d31LF5LQ77CdiA_W0-7B-38">
          <mxGeometry relative="1" as="geometry">
            <mxPoint x="335" y="430" as="targetPoint" />
            <mxPoint x="335" y="400" as="sourcePoint" />
          </mxGeometry>
        </mxCell>
        <mxCell id="d31LF5LQ77CdiA_W0-7B-42" value="" style="endArrow=open;endFill=1;endSize=8;html=1;rounded=0;exitX=0.5;exitY=1;exitDx=0;exitDy=0;entryX=0.5;entryY=0;entryDx=0;entryDy=0;" edge="1" parent="1" source="d31LF5LQ77CdiA_W0-7B-6" target="d31LF5LQ77CdiA_W0-7B-14">
          <mxGeometry width="160" relative="1" as="geometry">
            <mxPoint x="310" y="400" as="sourcePoint" />
            <mxPoint x="470" y="400" as="targetPoint" />
          </mxGeometry>
        </mxCell>
        <mxCell id="d31LF5LQ77CdiA_W0-7B-43" value="Verificar tipo de cliente do pagador" style="rounded=1;whiteSpace=wrap;html=1;absoluteArcSize=1;arcSize=14;strokeWidth=1;fontSize=14;" vertex="1" parent="1">
          <mxGeometry x="19" y="408" width="170" height="50" as="geometry" />
        </mxCell>
        <mxCell id="d31LF5LQ77CdiA_W0-7B-46" value="É lojista?" style="rhombus;whiteSpace=wrap;html=1;fillColor=#ffe6cc;strokeColor=#d79b00;fontSize=14;" vertex="1" parent="1">
          <mxGeometry x="59" y="503" width="90" height="75" as="geometry" />
        </mxCell>
        <mxCell id="d31LF5LQ77CdiA_W0-7B-47" value="Sim" style="edgeStyle=orthogonalEdgeStyle;html=1;align=left;verticalAlign=bottom;endArrow=open;endSize=8;strokeColor=#d79b00;rounded=0;entryX=0;entryY=0.5;entryDx=0;entryDy=0;fontSize=13;fillColor=#ffe6cc;" edge="1" source="d31LF5LQ77CdiA_W0-7B-46" parent="1" target="d31LF5LQ77CdiA_W0-7B-49">
          <mxGeometry x="-1" relative="1" as="geometry">
            <mxPoint x="240" y="540" as="targetPoint" />
          </mxGeometry>
        </mxCell>
        <mxCell id="d31LF5LQ77CdiA_W0-7B-48" value="Não" style="edgeStyle=orthogonalEdgeStyle;html=1;align=left;verticalAlign=top;endArrow=open;endSize=8;strokeColor=#d79b00;rounded=0;fontSize=13;entryX=0.5;entryY=0;entryDx=0;entryDy=0;fillColor=#ffe6cc;" edge="1" source="d31LF5LQ77CdiA_W0-7B-46" parent="1" target="d31LF5LQ77CdiA_W0-7B-53">
          <mxGeometry x="-1" relative="1" as="geometry">
            <mxPoint x="104" y="640" as="targetPoint" />
          </mxGeometry>
        </mxCell>
        <mxCell id="d31LF5LQ77CdiA_W0-7B-49" value="Retorno: lojistas não podem efetuar transferências, apenas recebê-las" style="rounded=1;whiteSpace=wrap;html=1;absoluteArcSize=1;arcSize=14;strokeWidth=1;fontSize=14;fillColor=#f8cecc;strokeColor=#b85450;" vertex="1" parent="1">
          <mxGeometry x="240" y="503" width="170" height="75.5" as="geometry" />
        </mxCell>
        <mxCell id="d31LF5LQ77CdiA_W0-7B-50" value="" style="ellipse;html=1;shape=endState;fillColor=#000000;strokeColor=#ff0000;" vertex="1" parent="1">
          <mxGeometry x="481" y="525.5" width="30" height="30" as="geometry" />
        </mxCell>
        <mxCell id="d31LF5LQ77CdiA_W0-7B-51" value="" style="edgeStyle=orthogonalEdgeStyle;html=1;verticalAlign=bottom;endArrow=open;endSize=8;strokeColor=#ff0000;rounded=0;entryX=0;entryY=0.5;entryDx=0;entryDy=0;exitX=1;exitY=0.5;exitDx=0;exitDy=0;" edge="1" parent="1" source="d31LF5LQ77CdiA_W0-7B-49" target="d31LF5LQ77CdiA_W0-7B-50">
          <mxGeometry relative="1" as="geometry">
            <mxPoint x="461" y="452" as="targetPoint" />
            <mxPoint x="418" y="452" as="sourcePoint" />
          </mxGeometry>
        </mxCell>
        <mxCell id="d31LF5LQ77CdiA_W0-7B-52" value="" style="endArrow=open;endFill=1;endSize=8;html=1;rounded=0;exitX=0.5;exitY=1;exitDx=0;exitDy=0;entryX=0.5;entryY=0;entryDx=0;entryDy=0;fontSize=11;" edge="1" parent="1" source="d31LF5LQ77CdiA_W0-7B-43" target="d31LF5LQ77CdiA_W0-7B-46">
          <mxGeometry width="160" relative="1" as="geometry">
            <mxPoint x="340" y="620" as="sourcePoint" />
            <mxPoint x="500" y="620" as="targetPoint" />
          </mxGeometry>
        </mxCell>
        <mxCell id="d31LF5LQ77CdiA_W0-7B-53" value="Verificar saldo necessário para transferência na carteira do pagador" style="rounded=1;whiteSpace=wrap;html=1;absoluteArcSize=1;arcSize=14;strokeWidth=1;fontSize=14;" vertex="1" parent="1">
          <mxGeometry x="19" y="626" width="170" height="80" as="geometry" />
        </mxCell>
        <mxCell id="d31LF5LQ77CdiA_W0-7B-54" value="Tem saldo suficiente?" style="rhombus;whiteSpace=wrap;html=1;fillColor=#ffe6cc;strokeColor=#d79b00;fontSize=14;" vertex="1" parent="1">
          <mxGeometry x="49" y="749" width="110" height="90" as="geometry" />
        </mxCell>
        <mxCell id="d31LF5LQ77CdiA_W0-7B-55" value="Não" style="edgeStyle=orthogonalEdgeStyle;html=1;align=left;verticalAlign=bottom;endArrow=open;endSize=8;strokeColor=#d79b00;rounded=0;fontSize=13;entryX=0;entryY=0.5;entryDx=0;entryDy=0;fillColor=#ffe6cc;" edge="1" source="d31LF5LQ77CdiA_W0-7B-54" parent="1" target="d31LF5LQ77CdiA_W0-7B-58">
          <mxGeometry x="-1" relative="1" as="geometry">
            <mxPoint x="229" y="809" as="targetPoint" />
          </mxGeometry>
        </mxCell>
        <mxCell id="d31LF5LQ77CdiA_W0-7B-56" value="Sim" style="edgeStyle=orthogonalEdgeStyle;html=1;align=left;verticalAlign=top;endArrow=open;endSize=8;strokeColor=#d79b00;rounded=0;fontSize=13;entryX=0.5;entryY=0;entryDx=0;entryDy=0;fillColor=#ffe6cc;" edge="1" source="d31LF5LQ77CdiA_W0-7B-54" parent="1" target="d31LF5LQ77CdiA_W0-7B-70">
          <mxGeometry x="-1" relative="1" as="geometry">
            <mxPoint x="150" y="870" as="targetPoint" />
          </mxGeometry>
        </mxCell>
        <mxCell id="d31LF5LQ77CdiA_W0-7B-57" value="" style="endArrow=open;endFill=1;endSize=8;html=1;rounded=0;exitX=0.5;exitY=1;exitDx=0;exitDy=0;entryX=0.5;entryY=0;entryDx=0;entryDy=0;" edge="1" parent="1" source="d31LF5LQ77CdiA_W0-7B-53" target="d31LF5LQ77CdiA_W0-7B-54">
          <mxGeometry width="160" relative="1" as="geometry">
            <mxPoint x="310" y="680" as="sourcePoint" />
            <mxPoint x="470" y="680" as="targetPoint" />
          </mxGeometry>
        </mxCell>
        <mxCell id="d31LF5LQ77CdiA_W0-7B-58" value="Retorno: o pagador não possui saldo suficiente para realizar esta transferência" style="rounded=1;whiteSpace=wrap;html=1;absoluteArcSize=1;arcSize=14;strokeWidth=1;fontSize=14;fillColor=#f8cecc;strokeColor=#b85450;" vertex="1" parent="1">
          <mxGeometry x="240" y="756.25" width="170" height="75.5" as="geometry" />
        </mxCell>
        <mxCell id="d31LF5LQ77CdiA_W0-7B-59" value="" style="ellipse;html=1;shape=endState;fillColor=#000000;strokeColor=#ff0000;" vertex="1" parent="1">
          <mxGeometry x="481" y="779" width="30" height="30" as="geometry" />
        </mxCell>
        <mxCell id="d31LF5LQ77CdiA_W0-7B-60" value="" style="edgeStyle=orthogonalEdgeStyle;html=1;verticalAlign=bottom;endArrow=open;endSize=8;strokeColor=#ff0000;rounded=0;entryX=0;entryY=0.5;entryDx=0;entryDy=0;exitX=1;exitY=0.5;exitDx=0;exitDy=0;" edge="1" parent="1" source="d31LF5LQ77CdiA_W0-7B-58" target="d31LF5LQ77CdiA_W0-7B-59">
          <mxGeometry relative="1" as="geometry">
            <mxPoint x="491" y="551" as="targetPoint" />
            <mxPoint x="420" y="551" as="sourcePoint" />
          </mxGeometry>
        </mxCell>
        <mxCell id="d31LF5LQ77CdiA_W0-7B-61" value="Solicitar autorização de transferência junto a serviço externo" style="rounded=1;whiteSpace=wrap;html=1;absoluteArcSize=1;arcSize=14;strokeWidth=1;fontSize=14;" vertex="1" parent="1">
          <mxGeometry x="5" y="1021" width="197" height="69" as="geometry" />
        </mxCell>
        <mxCell id="d31LF5LQ77CdiA_W0-7B-62" value="Está autorizado?" style="rhombus;whiteSpace=wrap;html=1;fillColor=#ffe6cc;strokeColor=#d79b00;fontSize=14;" vertex="1" parent="1">
          <mxGeometry x="37.5" y="1137" width="131" height="100" as="geometry" />
        </mxCell>
        <mxCell id="d31LF5LQ77CdiA_W0-7B-63" value="Não" style="edgeStyle=orthogonalEdgeStyle;html=1;align=left;verticalAlign=bottom;endArrow=open;endSize=8;strokeColor=#d79b00;rounded=0;fontSize=13;entryX=0;entryY=0.5;entryDx=0;entryDy=0;fillColor=#ffe6cc;" edge="1" source="d31LF5LQ77CdiA_W0-7B-62" parent="1" target="d31LF5LQ77CdiA_W0-7B-72">
          <mxGeometry x="-1" relative="1" as="geometry">
            <mxPoint x="204" y="1200" as="targetPoint" />
          </mxGeometry>
        </mxCell>
        <mxCell id="d31LF5LQ77CdiA_W0-7B-64" value="Sim" style="edgeStyle=orthogonalEdgeStyle;html=1;align=left;verticalAlign=top;endArrow=open;endSize=8;strokeColor=#d79b00;rounded=0;fontSize=13;entryX=0.5;entryY=0;entryDx=0;entryDy=0;fillColor=#ffe6cc;" edge="1" source="d31LF5LQ77CdiA_W0-7B-62" parent="1" target="d31LF5LQ77CdiA_W0-7B-69">
          <mxGeometry x="-1" relative="1" as="geometry">
            <mxPoint x="87" y="1277" as="targetPoint" />
            <mxPoint as="offset" />
          </mxGeometry>
        </mxCell>
        <mxCell id="d31LF5LQ77CdiA_W0-7B-65" value="" style="endArrow=open;endFill=1;endSize=8;html=1;rounded=0;exitX=0.5;exitY=1;exitDx=0;exitDy=0;entryX=0.5;entryY=0;entryDx=0;entryDy=0;" edge="1" parent="1" source="d31LF5LQ77CdiA_W0-7B-61" target="d31LF5LQ77CdiA_W0-7B-62">
          <mxGeometry width="160" relative="1" as="geometry">
            <mxPoint x="480" y="1150" as="sourcePoint" />
            <mxPoint x="640" y="1150" as="targetPoint" />
          </mxGeometry>
        </mxCell>
        <mxCell id="d31LF5LQ77CdiA_W0-7B-66" value="Retorno: a transferência não foi autorizada" style="rounded=1;whiteSpace=wrap;html=1;absoluteArcSize=1;arcSize=14;strokeWidth=1;fontSize=14;fillColor=#f8cecc;strokeColor=#b85450;" vertex="1" parent="1">
          <mxGeometry x="456" y="1161.25" width="170" height="50.75" as="geometry" />
        </mxCell>
        <mxCell id="d31LF5LQ77CdiA_W0-7B-67" value="" style="ellipse;html=1;shape=endState;fillColor=#000000;strokeColor=#ff0000;" vertex="1" parent="1">
          <mxGeometry x="666" y="1172" width="30" height="30" as="geometry" />
        </mxCell>
        <mxCell id="d31LF5LQ77CdiA_W0-7B-68" value="" style="edgeStyle=orthogonalEdgeStyle;html=1;verticalAlign=bottom;endArrow=open;endSize=8;strokeColor=#ff0000;rounded=0;entryX=0;entryY=0.5;entryDx=0;entryDy=0;exitX=1;exitY=0.5;exitDx=0;exitDy=0;" edge="1" parent="1" source="d31LF5LQ77CdiA_W0-7B-66" target="d31LF5LQ77CdiA_W0-7B-67">
          <mxGeometry relative="1" as="geometry">
            <mxPoint x="491" y="934" as="targetPoint" />
            <mxPoint x="420" y="934" as="sourcePoint" />
          </mxGeometry>
        </mxCell>
        <mxCell id="d31LF5LQ77CdiA_W0-7B-69" value="Deduzir valor da carteira&lt;br&gt;&amp;nbsp;do pagador" style="rounded=1;whiteSpace=wrap;html=1;absoluteArcSize=1;arcSize=14;strokeWidth=1;fontSize=14;" vertex="1" parent="1">
          <mxGeometry x="13" y="1290" width="181" height="50" as="geometry" />
        </mxCell>
        <mxCell id="d31LF5LQ77CdiA_W0-7B-70" value="Registrar transferência no banco de dados" style="rounded=1;whiteSpace=wrap;html=1;absoluteArcSize=1;arcSize=14;strokeWidth=1;fontSize=14;" vertex="1" parent="1">
          <mxGeometry x="13" y="887" width="181" height="69" as="geometry" />
        </mxCell>
        <mxCell id="d31LF5LQ77CdiA_W0-7B-71" value="" style="endArrow=open;endFill=1;endSize=8;html=1;rounded=0;exitX=0.5;exitY=1;exitDx=0;exitDy=0;entryX=0.5;entryY=0;entryDx=0;entryDy=0;" edge="1" parent="1" source="d31LF5LQ77CdiA_W0-7B-70" target="d31LF5LQ77CdiA_W0-7B-61">
          <mxGeometry width="160" relative="1" as="geometry">
            <mxPoint x="350" y="1040" as="sourcePoint" />
            <mxPoint x="510" y="1040" as="targetPoint" />
          </mxGeometry>
        </mxCell>
        <mxCell id="d31LF5LQ77CdiA_W0-7B-72" value="Alterar status da transferência para &quot;não autorizado&quot; no banco de dados" style="rounded=1;whiteSpace=wrap;html=1;absoluteArcSize=1;arcSize=14;strokeWidth=1;fontSize=14;" vertex="1" parent="1">
          <mxGeometry x="234.5" y="1151.25" width="181" height="71.5" as="geometry" />
        </mxCell>
        <mxCell id="d31LF5LQ77CdiA_W0-7B-73" value="" style="edgeStyle=orthogonalEdgeStyle;html=1;verticalAlign=bottom;endArrow=open;endSize=8;rounded=0;entryX=0;entryY=0.5;entryDx=0;entryDy=0;exitX=1;exitY=0.5;exitDx=0;exitDy=0;" edge="1" parent="1" source="d31LF5LQ77CdiA_W0-7B-72" target="d31LF5LQ77CdiA_W0-7B-66">
          <mxGeometry relative="1" as="geometry">
            <mxPoint x="508" y="1227" as="targetPoint" />
            <mxPoint x="440" y="1227" as="sourcePoint" />
          </mxGeometry>
        </mxCell>
        <mxCell id="d31LF5LQ77CdiA_W0-7B-74" value="Deduzido com sucesso?" style="rhombus;whiteSpace=wrap;html=1;fillColor=#ffe6cc;strokeColor=#d79b00;fontSize=14;" vertex="1" parent="1">
          <mxGeometry x="38.5" y="1385" width="130" height="110" as="geometry" />
        </mxCell>
        <mxCell id="d31LF5LQ77CdiA_W0-7B-75" value="Não" style="edgeStyle=orthogonalEdgeStyle;html=1;align=left;verticalAlign=bottom;endArrow=open;endSize=8;strokeColor=#d79b00;rounded=0;fontSize=13;entryX=0;entryY=0.5;entryDx=0;entryDy=0;fillColor=#ffe6cc;" edge="1" source="d31LF5LQ77CdiA_W0-7B-74" parent="1" target="d31LF5LQ77CdiA_W0-7B-79">
          <mxGeometry x="-1" relative="1" as="geometry">
            <mxPoint x="248.5" y="1475" as="targetPoint" />
          </mxGeometry>
        </mxCell>
        <mxCell id="d31LF5LQ77CdiA_W0-7B-76" value="Sim" style="edgeStyle=orthogonalEdgeStyle;html=1;align=left;verticalAlign=top;endArrow=open;endSize=8;strokeColor=#d79b00;rounded=0;fontSize=13;entryX=0.5;entryY=0;entryDx=0;entryDy=0;fillColor=#ffe6cc;" edge="1" source="d31LF5LQ77CdiA_W0-7B-74" parent="1" target="d31LF5LQ77CdiA_W0-7B-86">
          <mxGeometry x="-1" relative="1" as="geometry">
            <mxPoint x="108.5" y="1555" as="targetPoint" />
          </mxGeometry>
        </mxCell>
        <mxCell id="d31LF5LQ77CdiA_W0-7B-78" value="" style="endArrow=open;endFill=1;endSize=8;html=1;rounded=0;exitX=0.5;exitY=1;exitDx=0;exitDy=0;entryX=0.5;entryY=0;entryDx=0;entryDy=0;" edge="1" parent="1" source="d31LF5LQ77CdiA_W0-7B-69" target="d31LF5LQ77CdiA_W0-7B-74">
          <mxGeometry width="160" relative="1" as="geometry">
            <mxPoint x="280" y="1500" as="sourcePoint" />
            <mxPoint x="440" y="1500" as="targetPoint" />
          </mxGeometry>
        </mxCell>
        <mxCell id="d31LF5LQ77CdiA_W0-7B-79" value="Alterar status da transferência para &quot;erro&quot; &lt;br&gt;no banco de dados" style="rounded=1;whiteSpace=wrap;html=1;absoluteArcSize=1;arcSize=14;strokeWidth=1;fontSize=14;" vertex="1" parent="1">
          <mxGeometry x="250" y="1405" width="181" height="71.5" as="geometry" />
        </mxCell>
        <mxCell id="d31LF5LQ77CdiA_W0-7B-81" value="" style="edgeStyle=orthogonalEdgeStyle;html=1;verticalAlign=bottom;endArrow=open;endSize=8;rounded=0;entryX=0;entryY=0.5;entryDx=0;entryDy=0;exitX=1;exitY=0.5;exitDx=0;exitDy=0;" edge="1" parent="1" source="d31LF5LQ77CdiA_W0-7B-79" target="d31LF5LQ77CdiA_W0-7B-82">
          <mxGeometry relative="1" as="geometry">
            <mxPoint x="489" y="1440.75" as="targetPoint" />
            <mxPoint x="636" y="1592" as="sourcePoint" />
          </mxGeometry>
        </mxCell>
        <mxCell id="d31LF5LQ77CdiA_W0-7B-82" value="Retorno: houve um problema &lt;br&gt;na transferência" style="rounded=1;whiteSpace=wrap;html=1;absoluteArcSize=1;arcSize=14;strokeWidth=1;fontSize=14;fillColor=#f8cecc;strokeColor=#b85450;" vertex="1" parent="1">
          <mxGeometry x="478" y="1412.5" width="170" height="57" as="geometry" />
        </mxCell>
        <mxCell id="d31LF5LQ77CdiA_W0-7B-84" value="" style="ellipse;html=1;shape=endState;fillColor=#000000;strokeColor=#ff0000;" vertex="1" parent="1">
          <mxGeometry x="704" y="1426" width="30" height="30" as="geometry" />
        </mxCell>
        <mxCell id="d31LF5LQ77CdiA_W0-7B-85" value="" style="edgeStyle=orthogonalEdgeStyle;html=1;verticalAlign=bottom;endArrow=open;endSize=8;strokeColor=#ff0000;rounded=0;entryX=0;entryY=0.5;entryDx=0;entryDy=0;exitX=1;exitY=0.5;exitDx=0;exitDy=0;" edge="1" parent="1" source="d31LF5LQ77CdiA_W0-7B-82" target="d31LF5LQ77CdiA_W0-7B-84">
          <mxGeometry relative="1" as="geometry">
            <mxPoint x="666" y="1342" as="targetPoint" />
            <mxPoint x="626" y="1342" as="sourcePoint" />
          </mxGeometry>
        </mxCell>
        <mxCell id="d31LF5LQ77CdiA_W0-7B-86" value="Creditar valor na carteira&lt;br&gt;&amp;nbsp;do recebedor" style="rounded=1;whiteSpace=wrap;html=1;absoluteArcSize=1;arcSize=14;strokeWidth=1;fontSize=14;" vertex="1" parent="1">
          <mxGeometry x="13" y="1541" width="181" height="50" as="geometry" />
        </mxCell>
        <mxCell id="d31LF5LQ77CdiA_W0-7B-90" value="Creditado com sucesso?" style="rhombus;whiteSpace=wrap;html=1;fillColor=#ffe6cc;strokeColor=#d79b00;fontSize=14;" vertex="1" parent="1">
          <mxGeometry x="38.5" y="1635" width="130" height="110" as="geometry" />
        </mxCell>
        <mxCell id="d31LF5LQ77CdiA_W0-7B-91" value="Não" style="edgeStyle=orthogonalEdgeStyle;html=1;align=left;verticalAlign=bottom;endArrow=open;endSize=8;strokeColor=#d79b00;rounded=0;fontSize=13;entryX=0;entryY=0.5;entryDx=0;entryDy=0;fillColor=#ffe6cc;" edge="1" parent="1" source="d31LF5LQ77CdiA_W0-7B-90" target="d31LF5LQ77CdiA_W0-7B-94">
          <mxGeometry x="-1" relative="1" as="geometry">
            <mxPoint x="250" y="1691" as="targetPoint" />
          </mxGeometry>
        </mxCell>
        <mxCell id="d31LF5LQ77CdiA_W0-7B-92" value="Sim" style="edgeStyle=orthogonalEdgeStyle;html=1;align=left;verticalAlign=top;endArrow=open;endSize=8;strokeColor=#d79b00;rounded=0;fontSize=13;entryX=0.5;entryY=0;entryDx=0;entryDy=0;fillColor=#ffe6cc;" edge="1" parent="1" source="d31LF5LQ77CdiA_W0-7B-90" target="d31LF5LQ77CdiA_W0-7B-101">
          <mxGeometry x="-1" relative="1" as="geometry">
            <mxPoint x="104" y="1791" as="targetPoint" />
          </mxGeometry>
        </mxCell>
        <mxCell id="d31LF5LQ77CdiA_W0-7B-93" value="" style="endArrow=open;endFill=1;endSize=8;html=1;rounded=0;exitX=0.5;exitY=1;exitDx=0;exitDy=0;entryX=0.5;entryY=0;entryDx=0;entryDy=0;" edge="1" parent="1" source="d31LF5LQ77CdiA_W0-7B-86" target="d31LF5LQ77CdiA_W0-7B-90">
          <mxGeometry width="160" relative="1" as="geometry">
            <mxPoint x="480" y="1550" as="sourcePoint" />
            <mxPoint x="640" y="1550" as="targetPoint" />
          </mxGeometry>
        </mxCell>
        <mxCell id="d31LF5LQ77CdiA_W0-7B-94" value="Alterar status da transferência para &quot;erro&quot; &lt;br&gt;no banco de dados" style="rounded=1;whiteSpace=wrap;html=1;absoluteArcSize=1;arcSize=14;strokeWidth=1;fontSize=14;" vertex="1" parent="1">
          <mxGeometry x="246" y="1654.25" width="181" height="71.5" as="geometry" />
        </mxCell>
        <mxCell id="d31LF5LQ77CdiA_W0-7B-95" value="Creditar valor de volta na carteira do pagador" style="rounded=1;whiteSpace=wrap;html=1;absoluteArcSize=1;arcSize=14;strokeWidth=1;fontSize=14;" vertex="1" parent="1">
          <mxGeometry x="475" y="1660" width="181" height="60" as="geometry" />
        </mxCell>
        <mxCell id="d31LF5LQ77CdiA_W0-7B-96" value="Retorno: houve um problema &lt;br&gt;na transferência" style="rounded=1;whiteSpace=wrap;html=1;absoluteArcSize=1;arcSize=14;strokeWidth=1;fontSize=14;fillColor=#f8cecc;strokeColor=#b85450;" vertex="1" parent="1">
          <mxGeometry x="699" y="1661.5" width="170" height="57" as="geometry" />
        </mxCell>
        <mxCell id="d31LF5LQ77CdiA_W0-7B-97" value="" style="ellipse;html=1;shape=endState;fillColor=#000000;strokeColor=#ff0000;" vertex="1" parent="1">
          <mxGeometry x="919" y="1675" width="30" height="30" as="geometry" />
        </mxCell>
        <mxCell id="d31LF5LQ77CdiA_W0-7B-98" value="" style="edgeStyle=orthogonalEdgeStyle;html=1;verticalAlign=bottom;endArrow=open;endSize=8;rounded=0;entryX=0;entryY=0.5;entryDx=0;entryDy=0;exitX=1;exitY=0.5;exitDx=0;exitDy=0;" edge="1" parent="1" source="d31LF5LQ77CdiA_W0-7B-94" target="d31LF5LQ77CdiA_W0-7B-95">
          <mxGeometry relative="1" as="geometry">
            <mxPoint x="488" y="1571" as="targetPoint" />
            <mxPoint x="441" y="1571" as="sourcePoint" />
          </mxGeometry>
        </mxCell>
        <mxCell id="d31LF5LQ77CdiA_W0-7B-99" value="" style="edgeStyle=orthogonalEdgeStyle;html=1;verticalAlign=bottom;endArrow=open;endSize=8;rounded=0;entryX=0;entryY=0.5;entryDx=0;entryDy=0;exitX=1;exitY=0.5;exitDx=0;exitDy=0;" edge="1" parent="1" source="d31LF5LQ77CdiA_W0-7B-95" target="d31LF5LQ77CdiA_W0-7B-96">
          <mxGeometry relative="1" as="geometry">
            <mxPoint x="714" y="1531" as="targetPoint" />
            <mxPoint x="658" y="1531" as="sourcePoint" />
          </mxGeometry>
        </mxCell>
        <mxCell id="d31LF5LQ77CdiA_W0-7B-100" value="" style="edgeStyle=orthogonalEdgeStyle;html=1;verticalAlign=bottom;endArrow=open;endSize=8;strokeColor=#ff0000;rounded=0;entryX=0;entryY=0.5;entryDx=0;entryDy=0;exitX=1;exitY=0.5;exitDx=0;exitDy=0;" edge="1" parent="1" source="d31LF5LQ77CdiA_W0-7B-96" target="d31LF5LQ77CdiA_W0-7B-97">
          <mxGeometry relative="1" as="geometry">
            <mxPoint x="714" y="1521" as="targetPoint" />
            <mxPoint x="658" y="1521" as="sourcePoint" />
          </mxGeometry>
        </mxCell>
        <mxCell id="d31LF5LQ77CdiA_W0-7B-101" value="Enviar notificação de transferência recebida &lt;br&gt;para recebedor" style="rounded=1;whiteSpace=wrap;html=1;absoluteArcSize=1;arcSize=14;strokeWidth=1;fontSize=14;" vertex="1" parent="1">
          <mxGeometry x="13" y="1798" width="181" height="70" as="geometry" />
        </mxCell>
        <mxCell id="d31LF5LQ77CdiA_W0-7B-102" value="Retorno: transferência realizada com sucesso" style="rounded=1;whiteSpace=wrap;html=1;absoluteArcSize=1;arcSize=14;strokeWidth=1;fontSize=14;fillColor=#d5e8d4;strokeColor=#82b366;" vertex="1" parent="1">
          <mxGeometry x="12.5" y="1920" width="181" height="60" as="geometry" />
        </mxCell>
        <mxCell id="d31LF5LQ77CdiA_W0-7B-103" value="" style="edgeStyle=orthogonalEdgeStyle;html=1;verticalAlign=bottom;endArrow=open;endSize=8;strokeColor=#000000;rounded=0;entryX=0.5;entryY=0;entryDx=0;entryDy=0;exitX=0.5;exitY=1;exitDx=0;exitDy=0;" edge="1" parent="1" source="d31LF5LQ77CdiA_W0-7B-101" target="d31LF5LQ77CdiA_W0-7B-102">
          <mxGeometry relative="1" as="geometry">
            <mxPoint x="444" y="1941" as="targetPoint" />
            <mxPoint x="388" y="1941" as="sourcePoint" />
          </mxGeometry>
        </mxCell>
        <mxCell id="d31LF5LQ77CdiA_W0-7B-104" value="" style="edgeStyle=orthogonalEdgeStyle;html=1;verticalAlign=bottom;endArrow=open;endSize=8;strokeColor=#82b366;rounded=0;entryX=0.5;entryY=0;entryDx=0;entryDy=0;exitX=0.5;exitY=1;exitDx=0;exitDy=0;fillColor=#d5e8d4;" edge="1" parent="1" source="d31LF5LQ77CdiA_W0-7B-102" target="d31LF5LQ77CdiA_W0-7B-105">
          <mxGeometry relative="1" as="geometry">
            <mxPoint x="113" y="2050" as="targetPoint" />
            <mxPoint x="114" y="1998" as="sourcePoint" />
          </mxGeometry>
        </mxCell>
        <mxCell id="d31LF5LQ77CdiA_W0-7B-105" value="" style="ellipse;html=1;shape=endState;fillColor=#000000;strokeColor=#67AB9F;" vertex="1" parent="1">
          <mxGeometry x="88" y="2030" width="30" height="30" as="geometry" />
        </mxCell>
      </root>
    </mxGraphModel>
  </diagram>
</mxfile>
